<?xml version="1.0" encoding="UTF-8" standalone="no"?>
<svg
   xmlns:dc="http://purl.org/dc/elements/1.1/"
   xmlns:cc="http://creativecommons.org/ns#"
   xmlns:rdf="http://www.w3.org/1999/02/22-rdf-syntax-ns#"
   xmlns:svg="http://www.w3.org/2000/svg"
   xmlns="http://www.w3.org/2000/svg"
   xmlns:sodipodi="http://sodipodi.sourceforge.net/DTD/sodipodi-0.dtd"
   xmlns:inkscape="http://www.inkscape.org/namespaces/inkscape"
   version="1.1"
   viewBox="0 0 439.46875 128"
   stroke-miterlimit="10"
   id="svg3108"
   inkscape:version="0.48.4 r9939"
   width="100%"
   height="100%"
   sodipodi:docname="doarama-beta.svg"
   style="fill:none;stroke:none">
  <metadata
     id="metadata3137">
    <rdf:RDF>
      <cc:Work
         rdf:about="">
        <dc:format>image/svg+xml</dc:format>
        <dc:type
           rdf:resource="http://purl.org/dc/dcmitype/StillImage" />
        <dc:title></dc:title>
      </cc:Work>
    </rdf:RDF>
  </metadata>
  <defs
     id="defs3135" />
  <sodipodi:namedview
     pagecolor="#ffffff"
     bordercolor="#666666"
     borderopacity="1"
     objecttolerance="10"
     gridtolerance="10"
     guidetolerance="10"
     inkscape:pageopacity="0"
     inkscape:pageshadow="2"
     inkscape:window-width="1551"
     inkscape:window-height="876"
     id="namedview3133"
     showgrid="false"
     inkscape:zoom="1.7858942"
     inkscape:cx="288.07416"
     inkscape:cy="51.547247"
     inkscape:window-x="49"
     inkscape:window-y="24"
     inkscape:window-maximized="1"
     inkscape:current-layer="svg3108"
     fit-margin-top="0"
     fit-margin-left="0"
     fit-margin-right="0"
     fit-margin-bottom="0" />
  <clipPath
     id="p.0">
    <path
       d="M 0,0 397,0 397,136 0,136 0,0 z"
       clip-rule="nonzero"
       id="path3111"
       inkscape:connector-curvature="0" />
  </clipPath>
  <path
     style="fill:#ff0000;fill-opacity:1;stroke:none"
     d="m 382.34375,8.2187497 0,111.8750003 57.125,0 0,-111.8750003 -57.125,0 z m 34.1875,5.4375003 15.65625,0 c 0.18,1.04402 0.40425,2.42827 0.65625,4.15625 0.252,1.69202 0.375,3.45001 0.375,5.25 0,1.36801 -0.123,2.70401 -0.375,4 -0.216,1.29601 -0.6115,2.42951 -1.1875,3.4375 -0.612,1.008 -1.456,1.8255 -2.5,2.4375 -1.044,0.612 -2.37999,0.9375 -4,0.9375 -1.43999,0 -2.65299,-0.3255 -3.625,-0.9375 -1.00799,-0.648 -1.79424,-1.4655 -2.40625,-2.4375 -0.61199,-1.00799 -1.06049,-2.11499 -1.3125,-3.375 -0.28798,-1.29599 -0.43748,-2.61024 -0.4375,-3.90625 2e-5,-1.76399 0.19777,-3.49548 0.59375,-5.1875 l -1.21875,0 c -0.75598,2e-5 -1.47223,0.10127 -2.15625,0.28125 -0.71998,0.14402 -1.39273,0.43827 -1.96875,0.90625 -0.57598,0.43202 -1.01973,1.05177 -1.34375,1.84375 -0.35998,0.75601 -0.53123,1.74476 -0.53125,2.96875 2e-5,1.54801 0.0965,2.91051 0.3125,4.0625 0.21602,1.15201 0.44027,2.01301 0.65625,2.625 l -3.6875,0.5625 c -0.28798,-0.612 -0.53397,-1.62724 -0.75,-3.03125 -0.21597,-1.43999 -0.31247,-2.97374 -0.3125,-4.59375 3e-5,-1.87199 0.21953,-3.42748 0.6875,-4.6875 0.46802,-1.29598 1.14077,-2.36423 1.96875,-3.15625 0.82802,-0.79198 1.81202,-1.33223 3,-1.65625 1.18802,-0.32398 2.50227,-0.49998 3.90625,-0.5 z m 5.0625,4.375 c -0.17999,0.57602 -0.32949,1.29702 -0.4375,2.125 -0.10799,0.79201 -0.15624,1.63126 -0.15625,2.53125 10e-6,0.82801 0.0748,1.64551 0.21875,2.4375 0.10801,0.79201 0.33226,1.48176 0.65625,2.09375 0.32401,0.61201 0.74126,1.10401 1.28125,1.5 0.50401,0.39601 1.14551,0.59376 1.9375,0.59375 1.62001,10e-6 2.75825,-0.51374 3.40625,-1.59375 0.612,-1.11599 0.9375,-2.62799 0.9375,-4.5 0,-1.11599 -0.053,-2.10474 -0.125,-2.96875 -0.072,-0.89998 -0.142,-1.64273 -0.25,-2.21875 l -7.46875,0 z M 431.8125,39.6875 c 0.216,0.50402 0.48375,1.32152 0.84375,2.4375 0.36,1.08002 0.5625,2.44252 0.5625,4.0625 0,1.87201 -0.22425,3.37451 -0.65625,4.5625 -0.432,1.18801 -1.0735,2.12851 -1.9375,2.8125 -0.864,0.64801 -1.9275,1.09176 -3.1875,1.34375 -1.29599,0.25201 -2.80799,0.40626 -4.5,0.40625 l -11.65625,0 0,5.28125 -3.71875,0 0,-5.28125 -7.03125,0 -0.75,-4.4375 7.78125,0 0,-10.59375 3.71875,0 0,10.59375 11.65625,0 c 1.26001,1e-5 2.30176,-0.10124 3.09375,-0.28125 0.79201,-0.17999 1.43351,-0.44774 1.9375,-0.84375 0.468,-0.43199 0.78875,-0.97699 0.96875,-1.625 0.18,-0.64798 0.28125,-1.43898 0.28125,-2.375 0,-1.29598 -0.12775,-2.33298 -0.34375,-3.125 -0.216,-0.79198 -0.48375,-1.56123 -0.84375,-2.28125 l 3.78125,-0.65625 z m -12.09375,26.75 1.5625,0 0,17.90625 c 2.59201,-0.17999 4.56951,-1.01924 5.9375,-2.53125 1.332,-1.54799 2,-3.69674 2,-6.46875 0,-1.58398 -0.123,-2.94648 -0.375,-4.0625 -0.252,-1.11598 -0.5245,-1.95523 -0.8125,-2.53125 l 3.78125,-0.59375 c 0.288,0.54002 0.58225,1.50227 0.90625,2.90625 0.324,1.40402 0.5,2.98602 0.5,4.75 0,2.16001 -0.32075,4.06276 -0.96875,5.71875 -0.684,1.62001 -1.62925,2.9825 -2.78125,4.0625 -1.152,1.08 -2.50974,1.8975 -4.09375,2.4375 -1.61999,0.54 -3.37799,0.8125 -5.25,0.8125 -2.23199,0 -4.15648,-0.34725 -5.8125,-1.03125 -1.65598,-0.684 -3.01373,-1.60275 -4.09375,-2.71875 -1.07998,-1.11599 -1.89748,-2.37724 -2.4375,-3.78125 -0.53997,-1.40399 -0.81247,-2.83649 -0.8125,-4.3125 3e-5,-3.38398 1.06352,-5.97648 3.1875,-7.8125 2.08802,-1.83598 5.27852,-2.74998 9.5625,-2.75 z m -2.0625,4.53125 c -2.12398,2e-5 -3.80723,0.54027 -5.03125,1.65625 -1.25998,1.11602 -1.87498,2.60151 -1.875,4.4375 2e-5,1.04401 0.19777,2.01101 0.59375,2.875 0.39602,0.82801 0.91452,1.54426 1.5625,2.15625 0.64802,0.61201 1.39077,1.07751 2.21875,1.4375 0.82802,0.36001 1.66727,0.61076 2.53125,0.71875 l 0,-13.28125 z m 2.4375,22.1875 c 2.01601,2e-5 3.81751,0.29902 5.4375,0.875 1.62001,0.57602 3.00425,1.362268 4.15625,2.406248 1.116,1.04402 1.98175,2.30527 2.59375,3.781252 0.612,1.47602 0.9375,3.13751 0.9375,4.9375 0,1.98001 -0.1495,3.73326 -0.4375,5.28125 -0.288,1.54801 -0.587,2.78275 -0.875,3.71875 l -35.96875,0 -0.75,-4.46875 13.28125,0 c -0.32398,-0.53999 -0.64473,-1.33574 -0.96875,-2.34375 -0.35997,-1.04399 -0.53122,-2.17749 -0.53125,-3.4375 3e-5,-1.69198 0.32078,-3.19923 0.96875,-4.531252 0.64802,-1.33198 1.53552,-2.47498 2.6875,-3.375 1.15202,-0.935978 2.53627,-1.625728 4.15625,-2.093748 1.58402,-0.50398 3.36851,-0.74998 5.3125,-0.75 z m 0,4.593748 c -1.29599,2e-5 -2.50898,0.12302 -3.625,0.375 -1.15198,0.25202 -2.11423,0.64752 -2.90625,1.1875 -0.82798,0.54002 -1.50073,1.229772 -1.96875,2.093752 -0.46798,0.82802 -0.68748,1.84326 -0.6875,3.03125 2e-5,1.04401 0.22427,2.05926 0.65625,3.03125 0.39602,0.97201 0.81327,1.71476 1.28125,2.21875 l 15.875,0 c 0.18,-0.68399 0.3295,-1.37849 0.4375,-2.0625 0.072,-0.68399 0.125,-1.32549 0.125,-1.9375 0,-2.48399 -0.76925,-4.43973 -2.28125,-5.843752 -1.54799,-1.40398 -3.84624,-2.09373 -6.90625,-2.09375 z"
     id="rect3151"
     inkscape:connector-curvature="0" />
  <path
     style="fill:#000000;fill-opacity:0;fill-rule:nonzero;stroke:none"
     inkscape:connector-curvature="0"
     id="path3117"
     d="m 4.11548,24.08299 0,0 c 0,-11.03432 8.94509,-19.9794003 19.97941,-19.9794003 l 341.679,0 c 5.29886,0 10.38071,2.10497 14.12756,5.85183 3.74689,3.7468703 5.85184,8.8287103 5.85184,14.1275703 l 0,79.91522 c 0,11.03432 -8.94507,19.97941 -19.9794,19.97941 l -341.679,0 c -11.03432,0 -19.97941,-8.94509 -19.97941,-19.97941 z" />
  <path
     style="font-size:medium;font-style:normal;font-variant:normal;font-weight:normal;font-stretch:normal;text-indent:0;text-align:start;text-decoration:none;line-height:normal;letter-spacing:normal;word-spacing:normal;text-transform:none;direction:ltr;block-progression:tb;writing-mode:lr-tb;text-anchor:start;baseline-shift:baseline;color:#000000;fill:#000000;fill-opacity:1;stroke:none;stroke-width:8;marker:none;visibility:visible;display:inline;overflow:visible;enable-background:accumulate;font-family:Sans;-inkscape-font-specification:Sans"
     d="M 24,-3.0273437e-7 C 10.79232,-3.0273437e-7 0,10.79232 0,24 l 0,80 c 0,13.20767 10.79232,24 24,24 113.94054,-0.0202 227.79821,-0.0312 341.78125,-0.0312 13.19609,0 23.96875,-10.77268 23.96875,-23.96875 l 0,-79.90625 c 0,-6.35819 -2.53529,-12.47282 -7.03125,-16.9687503 -4.49592,-4.49603 -10.57931,-7.0313 -16.9375,-7.0313 C 251.80601,0.1996997 137.86561,4.9697266e-5 24,4.9697266e-5 z M 121.9375,8.0937497 l 243.84375,0 c 4.23953,0 8.28346,1.6897 11.28125,4.6875003 2.99782,2.9978 4.6875,7.07295 4.6875,11.3125 l 0,79.90625 c 0,8.87256 -7.09618,15.96875 -15.96875,15.96875 l -243.90625,0 C 125.67542,115.71949 128,110.11947 128,104 l 0,-80 c 0,-5.88332 -2.18012,-11.52913 -6.0625,-15.9062503 z M 56.90625,27.59375 l 0,64.65625 c -1.8125,0.51041 -4.13542,1.02083 -6.96875,1.53125 -2.83334,0.51041 -6.09375,0.78125 -9.78125,0.78125 -3.39584,0 -6.4375,-0.55209 -9.15625,-1.625 C 28.28125,91.86458 25.95833,90.35416 24.03125,88.375 22.10416,86.38541 20.61458,83.95833 19.5625,81.09375 18.51041,78.22916 17.96875,75 17.96875,71.4375 c 0,-3.40625 0.4375,-6.51042 1.3125,-9.34375 0.88541,-2.83333 2.17708,-5.28125 3.875,-7.3125 1.69791,-2.04167 3.78125,-3.61459 6.25,-4.75 2.46875,-1.13542 5.30208,-1.71875 8.46875,-1.71875 2.55208,0 4.79166,0.35416 6.75,1.03125 1.95833,0.67708 3.41666,1.3125 4.375,1.9375 l 0,-22.34375 7.90625,-1.34375 z m 99.03125,20.5 c -2.77083,0 -5.33333,0.19791 -7.71875,0.625 -2.375,0.42708 -4.07292,0.88541 -5.09375,1.34375 l 0.9375,6.53125 c 0.95833,-0.39584 2.39583,-0.79167 4.34375,-1.15625 1.95833,-0.36459 4.26042,-0.53125 6.875,-0.53125 2.03125,0 3.66667,0.28125 4.9375,0.875 1.28125,0.59375 2.29166,1.38541 3.03125,2.375 0.73958,0.98958 1.25,2.125 1.53125,3.40625 0.28125,1.27083 0.4375,2.57291 0.4375,3.875 l 0,2.21875 c -0.22917,-0.0625 -0.625,-0.16667 -1.1875,-0.28125 -0.5625,-0.11459 -1.22917,-0.23959 -2,-0.375 -0.76041,-0.14584 -1.58333,-0.26042 -2.4375,-0.34375 -0.85417,-0.0833 -1.67708,-0.125 -2.46875,-0.125 -2.48959,0 -4.85417,0.27083 -7.125,0.78125 -2.26041,0.51041 -4.26042,1.29166 -5.96875,2.375 -1.69792,1.07291 -3.04167,2.48958 -4.03125,4.25 -0.98959,1.75 -1.46875,3.84375 -1.46875,6.28125 0,2.55208 0.40625,4.75 1.25,6.5625 0.85417,1.8125 2.0625,3.27083 3.59375,4.375 1.53125,1.10416 3.34375,1.89583 5.4375,2.40625 2.09375,0.51041 4.375,0.78125 6.875,0.78125 1.75,0 3.53125,-0.0729 5.3125,-0.21875 1.79167,-0.13542 3.4375,-0.29167 4.96875,-0.46875 1.53125,-0.16667 2.90625,-0.36459 4.125,-0.5625 1.21875,-0.19792 2.16666,-0.35417 2.84375,-0.46875 l 0,-27.625 c 0,-2.48959 -0.27083,-4.75001 -0.84375,-6.8125 -0.5625,-2.07292 -1.51042,-3.875 -2.84375,-5.375 -1.32291,-1.51042 -3.09375,-2.67709 -5.28125,-3.5 -2.17709,-0.82292 -4.85417,-1.21875 -8.03125,-1.21875 z m 77.5,0 c -2.77083,0 -5.36458,0.19791 -7.75,0.625 -2.375,0.42708 -4.07292,0.88541 -5.09375,1.34375 l 0.9375,6.53125 c 0.95833,-0.39584 2.42708,-0.79167 4.375,-1.15625 1.95833,-0.36459 4.22917,-0.53125 6.84375,-0.53125 2.03125,0 3.69792,0.28125 4.96875,0.875 1.28125,0.59375 2.29166,1.38541 3.03125,2.375 0.73958,0.98958 1.25,2.125 1.53125,3.40625 0.28125,1.27083 0.40625,2.57291 0.40625,3.875 l 0,2.21875 c -0.22917,-0.0625 -0.625,-0.16667 -1.1875,-0.28125 -0.5625,-0.11459 -1.22917,-0.23959 -2,-0.375 -0.76041,-0.14584 -1.55208,-0.26042 -2.40625,-0.34375 -0.85417,-0.0833 -1.67708,-0.125 -2.46875,-0.125 -2.48959,0 -4.88542,0.27083 -7.15625,0.78125 -2.26041,0.51041 -4.22917,1.29166 -5.9375,2.375 -1.69792,1.07291 -3.04167,2.48958 -4.03125,4.25 -0.98959,1.75 -1.5,3.84375 -1.5,6.28125 0,2.55208 0.4375,4.75 1.28125,6.5625 0.85417,1.8125 2.03125,3.27083 3.5625,4.375 1.53125,1.10416 3.34375,1.89583 5.4375,2.40625 2.09375,0.51041 4.40625,0.78125 6.90625,0.78125 1.75,0 3.5,-0.0729 5.28125,-0.21875 1.79167,-0.13542 3.46875,-0.29167 5,-0.46875 1.53125,-0.16667 2.90625,-0.36459 4.125,-0.5625 1.21875,-0.19792 2.16666,-0.35417 2.84375,-0.46875 l 0,-27.625 c 0,-2.48959 -0.30208,-4.75001 -0.875,-6.8125 -0.5625,-2.07292 -1.51042,-3.875 -2.84375,-5.375 -1.32291,-1.51042 -3.0625,-2.67709 -5.25,-3.5 -2.17709,-0.82292 -4.85417,-1.21875 -8.03125,-1.21875 z m 118,0 c -2.77083,0 -5.36459,0.19791 -7.75,0.625 -2.375,0.42708 -4.07292,0.88541 -5.09375,1.34375 l 0.9375,6.53125 c 0.95833,-0.39584 2.42709,-0.79167 4.375,-1.15625 1.95833,-0.36459 4.22916,-0.53125 6.84375,-0.53125 2.03125,0 3.69792,0.28125 4.96875,0.875 1.28125,0.59375 2.29167,1.38541 3.03125,2.375 0.73959,0.98958 1.25,2.125 1.53125,3.40625 0.28125,1.27083 0.40625,2.57291 0.40625,3.875 l 0,2.21875 c -0.22917,-0.0625 -0.625,-0.16667 -1.1875,-0.28125 -0.5625,-0.11459 -1.22917,-0.23959 -2,-0.375 -0.76042,-0.14584 -1.55208,-0.26042 -2.40625,-0.34375 -0.85417,-0.0833 -1.67708,-0.125 -2.46875,-0.125 -2.48958,0 -4.88542,0.27083 -7.15625,0.78125 -2.26042,0.51041 -4.22917,1.29166 -5.9375,2.375 -1.69791,1.07291 -3.04166,2.48958 -4.03125,4.25 -0.98958,1.75 -1.5,3.84375 -1.5,6.28125 0,2.55208 0.4375,4.75 1.28125,6.5625 0.85417,1.8125 2.03125,3.27083 3.5625,4.375 1.53125,1.10416 3.34375,1.89583 5.4375,2.40625 2.09375,0.51041 4.40625,0.78125 6.90625,0.78125 1.75,0 3.5,-0.0729 5.28125,-0.21875 1.79167,-0.13542 3.46875,-0.29167 5,-0.46875 1.53125,-0.16667 2.90625,-0.36459 4.125,-0.5625 1.21875,-0.19792 2.16667,-0.35417 2.84375,-0.46875 l 0,-27.625 c 0,-2.48959 -0.30209,-4.75001 -0.875,-6.8125 -0.5625,-2.07292 -1.51042,-3.875 -2.84375,-5.375 -1.32292,-1.51042 -3.0625,-2.67709 -5.25,-3.5 -2.17708,-0.82292 -4.85416,-1.21875 -8.03125,-1.21875 z m -262.46875,0.125 c 3,0 5.791662,0.57291 8.343752,1.6875 2.55208,1.10416 4.729168,2.67708 6.562498,4.71875 1.84375,2.03125 3.29167,4.47917 4.3125,7.34375 1.02083,2.86458 1.53125,6.01041 1.53125,9.46875 0,3.51041 -0.51042,6.69791 -1.53125,9.53125 -1.02083,2.83333 -2.46875,5.27083 -4.3125,7.3125 -1.83333,2.04166 -4.010418,3.61458 -6.562498,4.71875 -2.55209,1.10416 -5.343752,1.65625 -8.343752,1.65625 -3.01042,0 -5.79167,-0.55209 -8.34375,-1.65625 -2.54167,-1.10417 -4.71875,-2.67709 -6.5625,-4.71875 -1.84375,-2.04167 -3.29167,-4.47917 -4.3125,-7.3125 -1.02084,-2.83334 -1.53125,-6.02084 -1.53125,-9.53125 0,-3.45834 0.51041,-6.60417 1.53125,-9.46875 1.02083,-2.86458 2.46875,-5.3125 4.3125,-7.34375 1.84375,-2.04167 4.02083,-3.61459 6.5625,-4.71875 2.55208,-1.11459 5.33333,-1.6875 8.34375,-1.6875 z m 113.5625,0.0312 c -3.45833,0 -6.5625,0.30208 -9.34375,0.90625 -2.77083,0.59375 -5.09375,1.22916 -6.96875,1.90625 l 0,42.34375 7.90625,0 0,-37.15625 c 0.45833,-0.11459 1.40625,-0.3125 2.84375,-0.625 1.44792,-0.3125 2.89583,-0.46875 4.375,-0.46875 2.26041,0 4.11458,0.15625 5.5625,0.46875 1.44791,0.3125 2.47916,0.58333 3.09375,0.8125 l 1.375,-6.90625 c -0.33333,-0.11459 -0.85417,-0.23959 -1.5625,-0.375 -0.70833,-0.14584 -1.48958,-0.27084 -2.34375,-0.40625 C 206.625,48.60411 205.76042,48.48953 204.875,48.4062 204,48.3125 203.20833,48.24995 202.53125,48.24995 z m 78.65625,0 c -3.91667,0 -7.36458,0.27083 -10.34375,0.78125 -2.96875,0.51041 -5.34375,0.97916 -7.15625,1.4375 l 0,42.9375 7.90625,0 0,-37.3125 c 0.22917,-0.0625 0.66666,-0.14584 1.34375,-0.25 0.67708,-0.11459 1.42708,-0.22917 2.25,-0.3125 0.82291,-0.0937 1.6875,-0.16667 2.59375,-0.21875 0.90625,-0.0625 1.77083,-0.0937 2.5625,-0.0937 1.875,0 3.40625,0.30208 4.625,0.90625 1.21875,0.59375 2.19792,1.53125 2.90625,2.78125 0.70833,1.23958 1.1875,2.78125 1.46875,4.65625 0.28125,1.86458 0.4375,4.11458 0.4375,6.71875 l 0,23.125 7.90625,0 0,-24.8125 c 0,-1.92709 -0.11458,-3.77084 -0.34375,-5.53125 -0.21875,-1.76042 -0.57292,-3.37501 -1.03125,-4.84375 0.625,-0.57292 1.80208,-1.22917 3.53125,-1.9375 1.72917,-0.70834 3.92708,-1.0625 6.59375,-1.0625 1.91667,0 3.5,0.30208 4.71875,0.90625 1.21875,0.59375 2.16667,1.53125 2.875,2.78125 0.70833,1.23958 1.1875,2.78125 1.4375,4.65625 0.26041,1.86458 0.40625,4.11458 0.40625,6.71875 l 0,23.125 7.90625,0 0,-24.8125 c 0,-2.94792 -0.22917,-5.66667 -0.65625,-8.15625 -0.41667,-2.5 -1.21875,-4.65625 -2.4375,-6.46875 -1.21875,-1.8125 -2.90625,-3.22917 -5.0625,-4.21875 -2.15625,-1 -4.94792,-1.5 -8.34375,-1.5 -1.76042,0 -3.40625,0.1875 -4.9375,0.5625 -1.52083,0.36458 -2.90625,0.79166 -4.15625,1.28125 -1.25,0.47916 -2.30208,0.98958 -3.15625,1.5 -0.84375,0.5 -1.44792,0.89583 -1.84375,1.1875 -1.30208,-1.47917 -2.91666,-2.61459 -4.84375,-3.375 C 286.41667,48.63541 284.02083,48.25 281.1875,48.25 z M 88.96875,55.2187 c -3.85417,0 -6.88542,1.45833 -9.125,4.375 -2.23959,2.91666 -3.375,6.85416 -3.375,11.84375 0,4.97916 1.13541,8.94791 3.375,11.875 2.23958,2.91666 5.27083,4.375 9.125,4.375 3.85416,0 6.895832,-1.45834 9.125002,-4.375 2.239588,-2.92709 3.374998,-6.89584 3.374998,-11.875 0,-4.98959 -1.13541,-8.92709 -3.374998,-11.84375 -2.22917,-2.91667 -5.270842,-4.375 -9.125002,-4.375 z m -50.0625,0.0625 c -2.27084,0 -4.22917,0.42708 -5.84375,1.25 -1.61459,0.82291 -2.91667,1.95833 -3.9375,3.40625 -1.02084,1.4375 -1.76042,3.13541 -2.21875,5.125 -0.44792,1.97916 -0.6875,4.10416 -0.6875,6.375 0,5.15625 1.29166,9.13541 3.84375,11.9375 2.55208,2.80208 5.9375,4.21875 10.1875,4.21875 2.14583,0 3.95833,-0.11459 5.40625,-0.3125 1.44791,-0.19792 2.55208,-0.39584 3.34375,-0.625 l 0,-27.96875 c -0.95834,-0.80209 -2.33334,-1.55209 -4.15625,-2.28125 -1.8125,-0.73959 -3.79167,-1.125 -5.9375,-1.125 z m 118.90625,17.625 c 1.8125,0 3.35417,0.11458 4.625,0.3125 1.28125,0.19791 2.21875,0.4375 2.78125,0.71875 l 0,13.15625 c -0.95833,0.22916 -2.17709,0.40625 -3.625,0.5 -1.44792,0.0833 -3.10417,0.125 -4.96875,0.125 -3.125,0 -5.59375,-0.55209 -7.40625,-1.65625 -1.8125,-1.11459 -2.71875,-3.10417 -2.71875,-5.9375 0,-1.53125 0.38542,-2.76042 1.125,-3.6875 0.73959,-0.9375 1.64583,-1.65625 2.75,-2.1875 1.10417,-0.54167 2.32292,-0.89584 3.65625,-1.0625 1.33333,-0.17709 2.59375,-0.28125 3.78125,-0.28125 z m 77.5,0 c 1.8125,0 3.35417,0.11458 4.625,0.3125 1.28125,0.19791 2.1875,0.4375 2.75,0.71875 l 0,13.15625 c -0.95833,0.22916 -2.14584,0.40625 -3.59375,0.5 -1.44792,0.0833 -3.10417,0.125 -4.96875,0.125 -3.125,0 -5.59375,-0.55209 -7.40625,-1.65625 C 224.90625,84.94786 224,82.95828 224,80.12495 c 0,-1.53125 0.35417,-2.76042 1.09375,-3.6875 0.73959,-0.9375 1.67708,-1.65625 2.78125,-2.1875 1.10417,-0.54167 2.32292,-0.89584 3.65625,-1.0625 1.33333,-0.17709 2.59375,-0.28125 3.78125,-0.28125 z m 118,0 c 1.8125,0 3.35417,0.11458 4.625,0.3125 1.28125,0.19791 2.1875,0.4375 2.75,0.71875 l 0,13.15625 c -0.95833,0.22916 -2.14583,0.40625 -3.59375,0.5 -1.44791,0.0833 -3.10416,0.125 -4.96875,0.125 -3.125,0 -5.59375,-0.55209 -7.40625,-1.65625 C 342.90625,84.94786 342,82.95828 342,80.12495 c 0,-1.53125 0.35416,-2.76042 1.09375,-3.6875 0.73958,-0.9375 1.67708,-1.65625 2.78125,-2.1875 1.10417,-0.54167 2.32292,-0.89584 3.65625,-1.0625 1.33333,-0.17709 2.59375,-0.28125 3.78125,-0.28125 z"
     id="path3119"
     inkscape:connector-curvature="0" />
  <path
     style="fill:#000000;fill-opacity:0;fill-rule:nonzero;stroke:none"
     inkscape:connector-curvature="0"
     id="path3125"
     d="m 124,2.4724197 261.76376,0 0,112.6929203 -261.76376,0 z" />
  <path
     style="fill:#000000;fill-opacity:0;fill-rule:nonzero;stroke:none"
     inkscape:connector-curvature="0"
     id="path3129"
     d="m 3.9475,2.6167797 120.00001,0 0,112.2519703 -120.00001,0 z" />
</svg>
