<?xml version="1.0" standalone="yes"?>

<svg version="1.1" viewBox="0.0 0.0 397.0 136.0" fill="none" stroke="none" stroke-linecap="square" stroke-miterlimit="10" xmlns="http://www.w3.org/2000/svg" xmlns:xlink="http://www.w3.org/1999/xlink"><clipPath id="p.0"><path d="m0 0l397.0 0l0 136.0l-397.0 0l0 -136.0z" clip-rule="nonzero"></path></clipPath><g clip-path="url(#p.0)"><path fill="#000000" fill-opacity="0.0" d="m0 0l397.68503 0l0 136.02362l-397.68503 0z" fill-rule="nonzero"></path><path fill="#000000" fill-opacity="0.0" d="m8.115485 28.239244l0 0c0 -11.034319 8.945083 -19.9794 19.979404 -19.9794l341.679 0c5.2988586 0 10.380707 2.1049662 14.127563 5.8518314c3.7468872 3.7468653 5.851837 8.828704 5.851837 14.12757l0 79.915215c0 11.034317 -8.945068 19.979408 -19.9794 19.979408l-341.679 0c-11.034321 0 -19.979404 -8.945091 -19.979404 -19.979408z" fill-rule="nonzero"></path><path stroke="#000000" stroke-width="8.0" stroke-linejoin="round" stroke-linecap="butt" d="m8.115485 28.239244l0 0c0 -11.034319 8.945083 -19.9794 19.979404 -19.9794l341.679 0c5.2988586 0 10.380707 2.1049662 14.127563 5.8518314c3.7468872 3.7468653 5.851837 8.828704 5.851837 14.12757l0 79.915215c0 11.034317 -8.945068 19.979408 -19.9794 19.979408l-341.679 0c-11.034321 0 -19.979404 -8.945091 -19.979404 -19.979408z" fill-rule="nonzero"></path><path fill="#000000" d="m7.999419 28.144758l0 0c0 -11.0459175 8.954484 -20.0004 20.0004 -20.0004l79.99921 0l0 0c5.3044357 0 10.391617 2.1071796 14.142418 5.8579817c3.750801 3.750803 5.857979 8.837984 5.857979 14.14242l0 79.9992c0 11.045914 -8.954483 20.000404 -20.000397 20.000404l-79.99921 0c-11.0459175 0 -20.0004 -8.954491 -20.0004 -20.000404z" fill-rule="nonzero"></path><path stroke="#000000" stroke-width="8.0" stroke-linejoin="round" stroke-linecap="butt" d="m7.999419 28.144758l0 0c0 -11.0459175 8.954484 -20.0004 20.0004 -20.0004l79.99921 0l0 0c5.3044357 0 10.391617 2.1071796 14.142418 5.8579817c3.750801 3.750803 5.857979 8.837984 5.857979 14.14242l0 79.9992c0 11.045914 -8.954483 20.000404 -20.000397 20.000404l-79.99921 0c-11.0459175 0 -20.0004 -8.954491 -20.0004 -20.000404z" fill-rule="nonzero"></path><path fill="#000000" fill-opacity="0.0" d="m128.0 6.628672l261.7638 0l0 112.69292l-261.7638 0z" fill-rule="nonzero"></path><path fill="#000000" d="m160.63353 89.47242q2.796875 0 4.96875 -0.125q2.171875 -0.140625 3.609375 -0.484375l0 -13.171875q-0.84375 -0.421875 -2.765625 -0.71875q-1.90625 -0.296875 -4.625 -0.296875q-1.78125 0 -3.78125 0.265625q-2.0 0.25 -3.65625 1.0625q-1.65625 0.796875 -2.765625 2.203125q-1.109375 1.390625 -1.109375 3.6875q0 4.25 2.71875 5.921875q2.71875 1.65625 7.40625 1.65625zm-0.6875 -39.624996q4.765625 0 8.03125 1.234375q3.28125 1.234375 5.265625 3.5q2.0 2.25 2.84375 5.359375q0.859375 3.09375 0.859375 6.828121l0 27.625q-1.015625 0.171875 -2.84375 0.46875q-1.828125 0.296875 -4.125 0.546875q-2.296875 0.265625 -4.984375 0.46875q-2.671875 0.21875 -5.296875 0.21875q-3.75 0 -6.890625 -0.765625q-3.140625 -0.765625 -5.4375 -2.421875q-2.296875 -1.65625 -3.578125 -4.375q-1.265625 -2.71875 -1.265625 -6.546875q0 -3.65625 1.484375 -6.28125q1.484375 -2.640625 4.03125 -4.25q2.5625 -1.625 5.953125 -2.390625q3.40625 -0.765625 7.140625 -0.765625q1.1875 0 2.46875 0.125q1.28125 0.125 2.421875 0.34375q1.15625 0.203125 2.0 0.375q0.84375 0.171875 1.1875 0.265625l0 -2.21875q0 -1.953125 -0.421875 -3.8593712q-0.421875 -1.921875 -1.53125 -3.40625q-1.109375 -1.484375 -3.03125 -2.375q-1.90625 -0.890625 -4.953125 -0.890625q-3.921875 0 -6.859375 0.546875q-2.921875 0.546875 -4.359375 1.140625l-0.9375 -6.53125q1.53125 -0.6875 5.09375 -1.328125q3.578125 -0.640625 7.734375 -0.640625zm46.58815 0.171875q1.015625 0 2.328125 0.140625q1.328125 0.125 2.59375 0.34375q1.28125 0.203125 2.34375 0.421875q1.0625 0.203125 1.5625 0.375l-1.359375 6.890625q-0.921875 -0.34375 -3.09375 -0.8125q-2.171875 -0.46875 -5.5625 -0.46875q-2.21875 0 -4.390625 0.46875q-2.15625 0.46875 -2.84375 0.640625l0 37.14062l-7.90625 0l0 -42.32812q2.8125 -1.015625 6.96875 -1.90625q4.171875 -0.90625 9.359375 -0.90625zm31.57727 39.45312q2.796875 0 4.96875 -0.125q2.171875 -0.140625 3.609375 -0.484375l0 -13.171875q-0.84375 -0.421875 -2.765625 -0.71875q-1.90625 -0.296875 -4.625 -0.296875q-1.78125 0 -3.78125 0.265625q-2.0 0.25 -3.65625 1.0625q-1.65625 0.796875 -2.765625 2.203125q-1.109375 1.390625 -1.109375 3.6875q0 4.25 2.71875 5.921875q2.71875 1.65625 7.40625 1.65625zm-0.6875 -39.624996q4.765625 0 8.03125 1.234375q3.28125 1.234375 5.265625 3.5q2.0 2.25 2.84375 5.359375q0.859375 3.09375 0.859375 6.828121l0 27.625q-1.015625 0.171875 -2.84375 0.46875q-1.828125 0.296875 -4.125 0.546875q-2.296875 0.265625 -4.984375 0.46875q-2.671875 0.21875 -5.296875 0.21875q-3.75 0 -6.890625 -0.765625q-3.140625 -0.765625 -5.4375 -2.421875q-2.296875 -1.65625 -3.578125 -4.375q-1.265625 -2.71875 -1.265625 -6.546875q0 -3.65625 1.484375 -6.28125q1.484375 -2.640625 4.03125 -4.25q2.5625 -1.625 5.953125 -2.390625q3.40625 -0.765625 7.140625 -0.765625q1.1875 0 2.46875 0.125q1.28125 0.125 2.421875 0.34375q1.15625 0.203125 2.0 0.375q0.84375 0.171875 1.1875 0.265625l0 -2.21875q0 -1.953125 -0.421875 -3.8593712q-0.421875 -1.921875 -1.53125 -3.40625q-1.109375 -1.484375 -3.03125 -2.375q-1.90625 -0.890625 -4.953125 -0.890625q-3.921875 0 -6.859375 0.546875q-2.921875 0.546875 -4.359375 1.140625l-0.9375 -6.53125q1.53125 -0.6875 5.09375 -1.328125q3.578125 -0.640625 7.734375 -0.640625zm30.26001 2.390625q2.71875 -0.6875 7.171875 -1.453125q4.46875 -0.765625 10.34375 -0.765625q4.25 0 7.140625 1.15625q2.890625 1.140625 4.84375 3.359375q0.59375 -0.4375 1.859375 -1.1875q1.28125 -0.765625 3.15625 -1.484375q1.875 -0.734375 4.15625 -1.28125q2.296875 -0.5625 4.9375 -0.5625q5.09375 0 8.328125 1.5q3.234375 1.484375 5.0625 4.203125q1.828125 2.71875 2.453125 6.46875q0.640625 3.7343712 0.640625 8.156246l0 24.8125l-7.90625 0l0 -23.125q0 -3.90625 -0.390625 -6.703125q-0.375 -2.8124962 -1.4375 -4.671871q-1.0625 -1.875 -2.890625 -2.765625q-1.828125 -0.90625 -4.703125 -0.90625q-4.0 0 -6.59375 1.0625q-2.59375 1.0625 -3.53125 1.921875q0.6875 2.203125 1.015625 4.843746q0.34375 2.640625 0.34375 5.53125l0 24.8125l-7.90625 0l0 -23.125q0 -3.90625 -0.421875 -6.703125q-0.421875 -2.8124962 -1.484375 -4.671871q-1.0625 -1.875 -2.890625 -2.765625q-1.828125 -0.90625 -4.640625 -0.90625q-1.1875 0 -2.546875 0.09375q-1.359375 0.078125 -2.59375 0.21875q-1.234375 0.125 -2.25 0.296875q-1.015625 0.15625 -1.359375 0.25l0 37.312496l-7.90625 0l0 -42.92187zm88.43628 37.23437q2.796875 0 4.96875 -0.125q2.171875 -0.140625 3.609375 -0.484375l0 -13.171875q-0.84375 -0.421875 -2.765625 -0.71875q-1.90625 -0.296875 -4.625 -0.296875q-1.78125 0 -3.78125 0.265625q-2.0 0.25 -3.65625 1.0625q-1.65625 0.796875 -2.765625 2.203125q-1.109375 1.390625 -1.109375 3.6875q0 4.25 2.71875 5.921875q2.71875 1.65625 7.40625 1.65625zm-0.6875 -39.624996q4.765625 0 8.03125 1.234375q3.28125 1.234375 5.265625 3.5q2.0 2.25 2.84375 5.359375q0.859375 3.09375 0.859375 6.828121l0 27.625q-1.015625 0.171875 -2.84375 0.46875q-1.828125 0.296875 -4.125 0.546875q-2.296875 0.265625 -4.984375 0.46875q-2.671875 0.21875 -5.296875 0.21875q-3.75 0 -6.890625 -0.765625q-3.140625 -0.765625 -5.4375 -2.421875q-2.296875 -1.65625 -3.578125 -4.375q-1.265625 -2.71875 -1.265625 -6.546875q0 -3.65625 1.484375 -6.28125q1.484375 -2.640625 4.03125 -4.25q2.5625 -1.625 5.953125 -2.390625q3.40625 -0.765625 7.140625 -0.765625q1.1875 0 2.46875 0.125q1.28125 0.125 2.421875 0.34375q1.15625 0.203125 2.0 0.375q0.84375 0.171875 1.1875 0.265625l0 -2.21875q0 -1.953125 -0.421875 -3.8593712q-0.421875 -1.921875 -1.53125 -3.40625q-1.109375 -1.484375 -3.03125 -2.375q-1.90625 -0.890625 -4.953125 -0.890625q-3.921875 0 -6.859375 0.546875q-2.921875 0.546875 -4.359375 1.140625l-0.9375 -6.53125q1.53125 -0.6875 5.09375 -1.328125q3.578125 -0.640625 7.734375 -0.640625z" fill-rule="nonzero"></path><path fill="#000000" fill-opacity="0.0" d="m7.9475064 6.773029l120.0 0l0 112.25197l-120.0 0z" fill-rule="nonzero"></path><path fill="#ffffff" d="m53.005962 60.46053q-1.4375 -1.203125 -4.171875 -2.296875q-2.71875 -1.109375 -5.9375 -1.109375q-3.40625 0 -5.828125 1.234375q-2.421875 1.234375 -3.953125 3.40625q-1.53125 2.15625 -2.21875 5.140621q-0.671875 2.96875 -0.671875 6.375q0 7.734375 3.828125 11.9375q3.828125 4.203125 10.203125 4.203125q3.21875 0 5.390625 -0.296875q2.171875 -0.296875 3.359375 -0.640625l0 -27.953121zm0 -29.75l7.90625 -1.359375l0 64.671875q-2.71875 0.765625 -6.96875 1.53125q-4.25 0.765625 -9.78125 0.765625q-5.09375 0 -9.171875 -1.609375q-4.078125 -1.609375 -6.96875 -4.578125q-2.890625 -2.984375 -4.46875 -7.28125q-1.578125 -4.296875 -1.578125 -9.640625q0 -5.109375 1.3125 -9.359371q1.328125 -4.25 3.875 -7.296875q2.546875 -3.0625 6.25 -4.765625q3.703125 -1.703125 8.453125 -1.703125q3.828125 0 6.765625 1.015625q2.9375 1.015625 4.375 1.953125l0 -22.34375zm60.711384 42.499996q0 5.265625 -1.53125 9.515625q-1.53125 4.25 -4.296875 7.3125q-2.75 3.0625 -6.578125 4.71875q-3.828125 1.65625 -8.328125 1.65625q-4.515625 0 -8.34375 -1.65625q-3.8125 -1.65625 -6.578125 -4.71875q-2.765625 -3.0625 -4.296875 -7.3125q-1.53125 -4.25 -1.53125 -9.515625q0 -5.1875 1.53125 -9.484371q1.53125 -4.296875 4.296875 -7.34375q2.765625 -3.0625 6.578125 -4.71875q3.828125 -1.671875 8.34375 -1.671875q4.5 0 8.328125 1.671875q3.828125 1.65625 6.578125 4.71875q2.765625 3.046875 4.296875 7.34375q1.53125 4.296871 1.53125 9.484371zm-8.25 0q0 -7.484375 -3.359375 -11.859371q-3.34375 -4.375 -9.125 -4.375q-5.78125 0 -9.140625 4.375q-3.359375 4.374996 -3.359375 11.859371q0 7.46875 3.359375 11.859375q3.359375 4.375 9.140625 4.375q5.78125 0 9.125 -4.375q3.359375 -4.390625 3.359375 -11.859375z" fill-rule="nonzero"></path></g></svg>

